<svg width="20" height="21" viewBox="0 0 20 21" fill="none" xmlns="http://www.w3.org/2000/svg">
<path d="M9.80565 6.67321C10.9993 6.67321 11.7934 5.1065 13.2515 4.91873C14.7097 4.73096 15.4089 4.91873 16.6148 5.89964C17.8211 6.88054 18.6035 8.38075 18.6035 11.2829C18.6035 14.185 17.8724 16.3517 16.385 17.9282C15.5825 18.7785 14.9214 19.3477 13.8364 19.8259C13.2887 20.067 12.7537 20.0279 12.1166 19.8851C11.4794 19.7428 10.9905 19.1022 9.80174 19.1022V19.1032C8.59981 19.1032 8.11083 19.7438 7.49568 19.8856C6.88103 20.0284 6.31429 20.0675 5.76663 19.8259C4.68206 19.3482 4.04785 18.7155 3.24591 17.8651C1.75891 16.2886 1 14.1576 1 11.2834C1 8.40813 1.74326 6.88054 2.83859 5.89964C3.93391 4.91873 4.62729 4.70847 5.89279 4.91873C7.15779 5.12851 8.61253 6.67321 9.80565 6.67321ZM9.80565 6.67321C10.1895 2.8914 11.8203 1 14.6965 1C14.9605 1.79607 15.029 2.56622 14.9009 3.31095C14.8407 3.66497 14.6525 4.1696 14.3371 4.82484M5.02385 11.7577C4.8884 12.4159 4.8884 13.0931 5.02385 13.7904C5.15881 14.4872 5.44682 15.0251 5.88789 15.404" stroke="#292929" stroke-width="1.72727" stroke-linecap="round"/>
</svg>
