<svg width="22" height="23" viewBox="0 0 22 23" fill="none" xmlns="http://www.w3.org/2000/svg">
<path d="M10.7326 7.27039C12.0518 7.27039 12.9295 5.53876 14.5412 5.33123C16.1528 5.12369 16.9257 5.33123 18.2584 6.41539C19.5917 7.49954 20.4565 9.15767 20.4565 12.3653C20.4565 15.5729 19.6485 17.9677 18.0044 19.7101C17.1175 20.65 16.3868 21.279 15.1876 21.8076C14.5822 22.0741 13.991 22.0308 13.2868 21.873C12.5825 21.7157 12.0421 21.0077 10.7282 21.0077V21.0088C9.39979 21.0088 8.85933 21.7168 8.17944 21.8736C7.50008 22.0314 6.87369 22.0746 6.26838 21.8076C5.06965 21.2796 4.36867 20.5802 3.48232 19.6404C1.83879 17.8979 1 15.5426 1 12.3658C1 9.18793 1.8215 7.49954 3.03212 6.41539C4.24275 5.33123 5.00911 5.09883 6.40782 5.33123C7.80598 5.56308 9.41384 7.27039 10.7326 7.27039ZM10.7326 7.27039C11.1568 3.09049 12.9592 1 16.1382 1C16.43 1.87986 16.5057 2.73109 16.3641 3.5542C16.2976 3.94549 16.0896 4.50325 15.741 5.22746M5.44741 12.8901C5.2977 13.6175 5.2977 14.3661 5.44741 15.1367C5.59658 15.9069 5.91491 16.5014 6.4024 16.9203" stroke="#292929" stroke-width="1.5" stroke-linecap="round"/>
</svg>
