<svg width="18" height="21" viewBox="0 0 18 21" fill="none" xmlns="http://www.w3.org/2000/svg">
<path d="M10.625 1H2.925C2.41446 1 1.92483 1.20281 1.56382 1.56382C1.20281 1.92483 1 2.41446 1 2.925V18.325C1 18.8355 1.20281 19.3252 1.56382 19.6862C1.92483 20.0472 2.41446 20.25 2.925 20.25H14.475C14.9855 20.25 15.4752 20.0472 15.8362 19.6862C16.1972 19.3252 16.4 18.8355 16.4 18.325V6.775M10.625 1L16.4 6.775M10.625 1V6.775H16.4M12.55 11.5875H4.85M12.55 15.4375H4.85M6.775 7.7375H4.85" stroke="#292929" stroke-width="1.5" stroke-linecap="round" stroke-linejoin="round"/>
</svg>
