<svg width="23" height="20" viewBox="0 0 23 20" fill="none" xmlns="http://www.w3.org/2000/svg">
<path d="M15.0698 10.9614L14.0156 9.90725C14.4309 8.77322 14.2153 7.83086 13.3687 7.08017C12.5222 6.32947 11.6038 6.13781 10.6135 6.50517L9.55936 5.451C9.83088 5.27531 10.1344 5.14753 10.4698 5.06767C10.8052 4.98781 11.1486 4.94788 11.5 4.94788C12.634 4.94788 13.5963 5.34319 14.387 6.13381C15.1776 6.92444 15.5729 7.88677 15.5729 9.02079C15.5729 9.37218 15.529 9.71958 15.4411 10.063C15.3533 10.4064 15.2295 10.7059 15.0698 10.9614ZM18.1604 14.052L17.2021 13.0937C17.9847 12.5187 18.6675 11.8758 19.2505 11.1651C19.8335 10.4543 20.2607 9.73954 20.5323 9.02079C19.7337 7.24788 18.5357 5.84631 16.9385 4.81611C15.3413 3.7859 13.6083 3.27079 11.7396 3.27079C11.0687 3.27079 10.3819 3.33468 9.67915 3.46246C8.97637 3.59024 8.42533 3.74197 8.02602 3.91767L6.92394 2.79163C7.48297 2.53607 8.19772 2.31246 9.06821 2.12079C9.93869 1.92913 10.7892 1.83329 11.6198 1.83329C13.9038 1.83329 15.9922 2.48416 17.8849 3.7859C19.7776 5.08763 21.1632 6.8326 22.0416 9.02079C21.6264 10.043 21.0913 10.9774 20.4364 11.8239C19.7816 12.6704 19.0229 13.4132 18.1604 14.052ZM19.55 19.4666L15.525 15.5135C14.966 15.7371 14.3351 15.9088 13.6323 16.0286C12.9295 16.1484 12.2187 16.2083 11.5 16.2083C9.16804 16.2083 7.05172 15.5574 5.15102 14.2557C3.25033 12.954 1.85276 11.209 0.958313 9.02079C1.27776 8.19024 1.72099 7.37965 2.288 6.58902C2.85501 5.7984 3.54581 5.04371 4.3604 4.32496L1.34165 1.30621L2.3479 0.276001L20.4844 18.4125L19.55 19.4666ZM5.34269 5.33121C4.75172 5.76246 4.18071 6.32947 3.62967 7.03225C3.07863 7.73503 2.68331 8.39788 2.44373 9.02079C3.25831 10.7937 4.48418 12.1953 6.12133 13.2255C7.75849 14.2557 9.61526 14.7708 11.6916 14.7708C12.2187 14.7708 12.7378 14.7388 13.2489 14.675C13.76 14.6111 14.1434 14.5152 14.3989 14.3875L12.8656 12.8541C12.6899 12.934 12.4743 12.9939 12.2187 13.0338C11.9632 13.0737 11.7236 13.0937 11.5 13.0937C10.3819 13.0937 9.42359 12.7024 8.62498 11.9198C7.82637 11.1371 7.42706 10.1708 7.42706 9.02079C7.42706 8.78121 7.44703 8.54163 7.48696 8.30204C7.52689 8.06246 7.58679 7.84683 7.66665 7.65517L5.34269 5.33121Z" fill="#292929"/>
</svg>
