<svg width="23" height="16" viewBox="0 0 23 16" fill="none" xmlns="http://www.w3.org/2000/svg">
<path d="M11.5 12.0938C12.634 12.0938 13.5963 11.6985 14.387 10.9079C15.1776 10.1172 15.5729 9.1549 15.5729 8.02087C15.5729 6.88685 15.1776 5.92452 14.387 5.13389C13.5963 4.34327 12.634 3.94796 11.5 3.94796C10.366 3.94796 9.40363 4.34327 8.613 5.13389C7.82238 5.92452 7.42706 6.88685 7.42706 8.02087C7.42706 9.1549 7.82238 10.1172 8.613 10.9079C9.40363 11.6985 10.366 12.0938 11.5 12.0938ZM11.5 10.7042C10.7493 10.7042 10.1144 10.4447 9.59529 9.92556C9.0762 9.40646 8.81665 8.77157 8.81665 8.02087C8.81665 7.27018 9.0762 6.63528 9.59529 6.11619C10.1144 5.59709 10.7493 5.33754 11.5 5.33754C12.2507 5.33754 12.8856 5.59709 13.4047 6.11619C13.9238 6.63528 14.1833 7.27018 14.1833 8.02087C14.1833 8.77157 13.9238 9.40646 13.4047 9.92556C12.8856 10.4447 12.2507 10.7042 11.5 10.7042ZM11.5 15.2084C9.16804 15.2084 7.0597 14.5455 5.17498 13.2198C3.29026 11.8941 1.8847 10.1612 0.958313 8.02087C1.8847 5.8806 3.29026 4.14761 5.17498 2.82192C7.0597 1.49622 9.16804 0.833374 11.5 0.833374C13.8319 0.833374 15.9403 1.49622 17.825 2.82192C19.7097 4.14761 21.1153 5.8806 22.0416 8.02087C21.1153 10.1612 19.7097 11.8941 17.825 13.2198C15.9403 14.5455 13.8319 15.2084 11.5 15.2084ZM11.5 13.7709C13.4326 13.7709 15.2095 13.2478 16.8307 12.2016C18.4519 11.1554 19.6857 9.76185 20.5323 8.02087C19.6857 6.2799 18.4519 4.88633 16.8307 3.84014C15.2095 2.79396 13.4326 2.27087 11.5 2.27087C9.56734 2.27087 7.79043 2.79396 6.16925 3.84014C4.54807 4.88633 3.30623 6.2799 2.44373 8.02087C3.30623 9.76185 4.54807 11.1554 6.16925 12.2016C7.79043 13.2478 9.56734 13.7709 11.5 13.7709Z" fill="#292929"/>
</svg>
