<svg width="20" height="20" viewBox="0 0 20 20" fill="none" xmlns="http://www.w3.org/2000/svg">
<path d="M13.6 18.2V3.8C13.6 3.32261 13.4104 2.86477 13.0728 2.52721C12.7352 2.18964 12.2774 2 11.8 2H8.2C7.72261 2 7.26477 2.18964 6.92721 2.52721C6.58964 2.86477 6.4 3.32261 6.4 3.8V18.2M2.8 5.6H17.2C18.1941 5.6 19 6.40589 19 7.4V16.4C19 17.3941 18.1941 18.2 17.2 18.2H2.8C1.80589 18.2 1 17.3941 1 16.4V7.4C1 6.40589 1.80589 5.6 2.8 5.6Z" stroke="#F9FAFC" stroke-width="1.8" stroke-linecap="round" stroke-linejoin="round"/>
</svg>
