<svg width="18" height="22" viewBox="0 0 18 22" fill="none" xmlns="http://www.w3.org/2000/svg">
<path d="M12.55 2.925H14.475C14.9855 2.925 15.4752 3.12781 15.8362 3.48882C16.1972 3.84983 16.4 4.33946 16.4 4.85V18.325C16.4 18.8355 16.1972 19.3252 15.8362 19.6862C15.4752 20.0472 14.9855 20.25 14.475 20.25H2.925C2.41446 20.25 1.92483 20.0472 1.56382 19.6862C1.20281 19.3252 1 18.8355 1 18.325V4.85C1 4.33946 1.20281 3.84983 1.56382 3.48882C1.92483 3.12781 2.41446 2.925 2.925 2.925H4.85M5.8125 1H11.5875C12.1191 1 12.55 1.43093 12.55 1.9625V3.8875C12.55 4.41907 12.1191 4.85 11.5875 4.85H5.8125C5.28093 4.85 4.85 4.41907 4.85 3.8875V1.9625C4.85 1.43093 5.28093 1 5.8125 1Z" stroke="#292929" stroke-width="2" stroke-linecap="round" stroke-linejoin="round"/>
</svg>
